<svg width="25" height="24" viewBox="0 0 25 24" fill="none" xmlns="http://www.w3.org/2000/svg">
<path d="M2.5 17V19.3334C2.5 20.8061 3.69391 22 5.16667 22H7.50001M2.5 7.00001V4.66667C2.5 3.19391 3.69391 2 5.16667 2H7.50001M22.5 7.00001V4.66667C22.5 3.19391 21.3061 2 19.8334 2H17.5M22.5 17V19.3334C22.5 20.8061 21.3061 22 19.8334 22H17.5" stroke="#FF6700"/>
<path d="M5.16699 5.99935C5.16699 5.26297 5.76395 4.66602 6.50033 4.66602H10.5003C11.2367 4.66602 11.8337 5.26297 11.8337 5.99935V9.99936C11.8337 10.7357 11.2367 11.3327 10.5003 11.3327H6.50033C5.76395 11.3327 5.16699 10.7357 5.16699 9.99936V5.99935Z" fill="#FF6700"/>
<path d="M5.16699 13.9994C5.16699 13.263 5.76395 12.666 6.50033 12.666H10.5003C11.2367 12.666 11.8337 13.263 11.8337 13.9994V17.9994C11.8337 18.7358 11.2367 19.3327 10.5003 19.3327H6.50033C5.76395 19.3327 5.16699 18.7358 5.16699 17.9994V13.9994Z" fill="#FF6700"/>
<path d="M13.167 5.99935C13.167 5.26297 13.764 4.66602 14.5003 4.66602H18.5003C19.2367 4.66602 19.8337 5.26297 19.8337 5.99935V9.99936C19.8337 10.7357 19.2367 11.3327 18.5003 11.3327H14.5003C13.764 11.3327 13.167 10.7357 13.167 9.99936V5.99935Z" fill="#FF6700"/>
<path d="M13.167 13.9994C13.167 13.263 13.764 12.666 14.5003 12.666H18.5003C19.2367 12.666 19.8337 13.263 19.8337 13.9994V17.9994C19.8337 18.7358 19.2367 19.3327 18.5003 19.3327H14.5003C13.764 19.3327 13.167 18.7358 13.167 17.9994V13.9994Z" fill="#FF6700"/>
</svg>
