<svg width="64" height="64" viewBox="0 0 64 64" fill="none" xmlns="http://www.w3.org/2000/svg">
<path fill-rule="evenodd" clip-rule="evenodd" d="M6 13.3333C6 9.2821 9.2821 6 13.3333 6H20.2347C21.3392 6 22.2347 6.89543 22.2347 8C22.2347 9.10457 21.3392 10 20.2347 10H13.3333C11.4912 10 10 11.4912 10 13.3333V20.2347C10 21.3392 9.10457 22.2347 8 22.2347C6.89543 22.2347 6 21.3392 6 20.2347V13.3333ZM22 24.2132C22 23.1086 21.1046 22.2132 20 22.2132C18.8954 22.2132 18 23.1086 18 24.2132V28.2132C18 29.3177 18.8954 30.2132 20 30.2132C21.1046 30.2132 22 29.3177 22 28.2132V24.2132ZM46 24.2132C46 23.1086 45.1046 22.2132 44 22.2132C42.8954 22.2132 42 23.1086 42 24.2132V28.2132C42 29.3177 42.8954 30.2132 44 30.2132C45.1046 30.2132 46 29.3177 46 28.2132V24.2132ZM33.3333 22.2586C34.4379 22.2586 35.3333 23.154 35.3333 24.2586V33.5919C35.3333 36.1685 33.2432 38.2586 30.6667 38.2586H29.3333C28.2288 38.2586 27.3333 37.3631 27.3333 36.2586C27.3333 35.154 28.2288 34.2586 29.3333 34.2586H30.6667C31.0341 34.2586 31.3333 33.9593 31.3333 33.5919V24.2586C31.3333 23.154 32.2288 22.2586 33.3333 22.2586ZM24.7717 41.671C23.9907 40.8899 22.7243 40.8899 21.9433 41.671C21.1623 42.452 21.1623 43.7184 21.9433 44.4994C27.4977 50.0538 36.5053 50.0538 42.0597 44.4994C42.8408 43.7184 42.8408 42.452 42.0597 41.671C41.2787 40.8899 40.0124 40.8899 39.2313 41.671C35.239 45.6633 28.764 45.6633 24.7717 41.671ZM57.9999 43.7653C57.9999 42.6607 57.1045 41.7653 55.9999 41.7653C54.8953 41.7653 53.9999 42.6607 53.9999 43.7653V50.6666C53.9999 52.5087 52.5087 53.9999 50.6666 53.9999H43.7653C42.6607 53.9999 41.7653 54.8953 41.7653 55.9999C41.7653 57.1045 42.6607 57.9999 43.7653 57.9999H50.6666C54.7178 57.9999 57.9999 54.7178 57.9999 50.6666V43.7653ZM8 41.7653C9.10457 41.7653 10 42.6607 10 43.7653V50.6666C10 52.5087 11.4912 53.9999 13.3333 53.9999H20.2347C21.3392 53.9999 22.2347 54.8953 22.2347 55.9999C22.2347 57.1045 21.3392 57.9999 20.2347 57.9999H13.3333C9.2821 57.9999 6 54.7178 6 50.6666V43.7653C6 42.6607 6.89543 41.7653 8 41.7653ZM43.7653 6C42.6607 6 41.7653 6.89543 41.7653 8C41.7653 9.10457 42.6607 10 43.7653 10H50.6666C52.5087 10 53.9999 11.4912 53.9999 13.3333V20.2347C53.9999 21.3392 54.8953 22.2347 55.9999 22.2347C57.1045 22.2347 57.9999 21.3392 57.9999 20.2347V13.3333C57.9999 9.2821 54.7178 6 50.6666 6H43.7653Z" fill="#FF6700"/>
</svg>
