
<svg width="46" height="46" viewBox="0 0 46 46" fill="none" xmlns="http://www.w3.org/2000/svg">
<path fill-rule="evenodd" clip-rule="evenodd" d="M4.3125 9.58333C4.3125 6.67151 6.67151 4.3125 9.58333 4.3125H14.5437C15.3376 4.3125 15.9812 4.95609 15.9812 5.75C15.9812 6.54391 15.3376 7.1875 14.5437 7.1875H9.58333C8.25933 7.1875 7.1875 8.25933 7.1875 9.58333V14.5437C7.1875 15.3376 6.54391 15.9812 5.75 15.9812C4.95609 15.9812 4.3125 15.3376 4.3125 14.5437V9.58333ZM15.8125 17.4032C15.8125 16.6093 15.1689 15.9657 14.375 15.9657C13.5811 15.9657 12.9375 16.6093 12.9375 17.4032V20.2782C12.9375 21.0721 13.5811 21.7157 14.375 21.7157C15.1689 21.7157 15.8125 21.0721 15.8125 20.2782V17.4032ZM33.0625 17.4032C33.0625 16.6093 32.4189 15.9657 31.625 15.9657C30.8311 15.9657 30.1875 16.6093 30.1875 17.4032V20.2782C30.1875 21.0721 30.8311 21.7157 31.625 21.7157C32.4189 21.7157 33.0625 21.0721 33.0625 20.2782V17.4032ZM23.9583 15.9983C24.7522 15.9983 25.3958 16.6419 25.3958 17.4358V24.1442C25.3958 25.9961 23.8936 27.4983 22.0417 27.4983H21.0833C20.2894 27.4983 19.6458 26.8547 19.6458 26.0608C19.6458 25.2669 20.2894 24.6233 21.0833 24.6233H22.0417C22.3058 24.6233 22.5208 24.4083 22.5208 24.1442V17.4358C22.5208 16.6419 23.1644 15.9983 23.9583 15.9983ZM17.8047 29.951C17.2433 29.3896 16.3331 29.3896 15.7717 29.951C15.2104 30.5124 15.2104 31.4226 15.7717 31.9839C19.764 35.9762 26.2382 35.9762 30.2304 31.9839C30.7918 31.4226 30.7918 30.5124 30.2304 29.951C29.6691 29.3896 28.7589 29.3896 28.1975 29.951C25.328 32.8205 20.6741 32.8205 17.8047 29.951ZM41.6874 31.4563C41.6874 30.6624 41.0439 30.0188 40.2499 30.0188C39.456 30.0188 38.8124 30.6624 38.8124 31.4563V36.4166C38.8124 37.7406 37.7406 38.8124 36.4166 38.8124H31.4563C30.6624 38.8124 30.0188 39.456 30.0188 40.2499C30.0188 41.0439 30.6624 41.6874 31.4563 41.6874H36.4166C39.3284 41.6874 41.6874 39.3284 41.6874 36.4166V31.4563ZM5.75 30.0188C6.54391 30.0188 7.1875 30.6624 7.1875 31.4563V36.4166C7.1875 37.7406 8.25933 38.8124 9.58333 38.8124H14.5437C15.3376 38.8124 15.9812 39.456 15.9812 40.2499C15.9812 41.0439 15.3376 41.6874 14.5437 41.6874H9.58333C6.67151 41.6874 4.3125 39.3284 4.3125 36.4166V31.4563C4.3125 30.6624 4.95609 30.0188 5.75 30.0188ZM31.4563 4.3125C30.6624 4.3125 30.0188 4.95609 30.0188 5.75C30.0188 6.54391 30.6624 7.1875 31.4563 7.1875H36.4166C37.7406 7.1875 38.8124 8.25933 38.8124 9.58333V14.5437C38.8124 15.3376 39.456 15.9812 40.2499 15.9812C41.0439 15.9812 41.6874 15.3376 41.6874 14.5437V9.58333C41.6874 6.67151 39.3284 4.3125 36.4166 4.3125H31.4563Z" fill="#1D1D1B"/>
</svg>
