<svg width="25" height="24" viewBox="0 0 25 24" fill="none" xmlns="http://www.w3.org/2000/svg">
<path fill-rule="evenodd" clip-rule="evenodd" d="M2.5 6C2.5 3.79086 4.29086 2 6.5 2H6.66669V7.5C6.66669 8.60457 7.56212 9.5 8.66669 9.5H9.66669C10.7713 9.5 11.6667 8.60457 11.6667 7.5V2H18.5C20.7091 2 22.5 3.79086 22.5 6V18C22.5 20.2091 20.7091 22 18.5 22H6.5C4.29086 22 2.5 20.2091 2.5 18V6ZM14.6504 16.4178L15.8151 15.3043V19.504H17.2151V15.3043L18.3799 16.4178L19.3473 15.4058L16.9989 13.1607L16.5151 12.6982L16.0314 13.1607L13.683 15.4058L14.6504 16.4178Z" fill="#FF6700"/>
</svg>
