<svg width="25" height="24" viewBox="0 0 25 24" fill="none" xmlns="http://www.w3.org/2000/svg">
<path d="M2.5 17V19.3334C2.5 20.8061 3.69391 22 5.16667 22H7.50001M2.5 7.00001V4.66667C2.5 3.19391 3.69391 2 5.16667 2H7.50001M22.5 7.00001V4.66667C22.5 3.19391 21.3061 2 19.8334 2H17.5M22.5 17V19.3334C22.5 20.8061 21.3061 22 19.8334 22H17.5" stroke="#1D1D1B"/>
<path d="M5.66666 5.9999C5.66666 5.53966 6.03975 5.16656 6.49999 5.16656H10.5C10.9602 5.16656 11.3333 5.53966 11.3333 5.9999V9.99991C11.3333 10.4601 10.9602 10.8332 10.5 10.8332H6.49999C6.03975 10.8332 5.66666 10.4601 5.66666 9.99991V5.9999ZM5.66666 13.9999C5.66666 13.5397 6.03975 13.1666 6.49999 13.1666H10.5C10.9602 13.1666 11.3333 13.5397 11.3333 13.9999V17.9999C11.3333 18.4602 10.9602 18.8333 10.5 18.8333H6.49999C6.03975 18.8333 5.66666 18.4602 5.66666 17.9999V13.9999ZM13.6667 5.9999C13.6667 5.53966 14.0398 5.16656 14.5 5.16656H18.5C18.9603 5.16656 19.3334 5.53966 19.3334 5.9999V9.99991C19.3334 10.4601 18.9603 10.8332 18.5 10.8332H14.5C14.0398 10.8332 13.6667 10.4601 13.6667 9.99991V5.9999ZM13.6667 13.9999C13.6667 13.5397 14.0398 13.1666 14.5 13.1666H18.5C18.9603 13.1666 19.3334 13.5397 19.3334 13.9999V17.9999C19.3334 18.4602 18.9603 18.8333 18.5 18.8333H14.5C14.0398 18.8333 13.6667 18.4602 13.6667 17.9999V13.9999Z" stroke="#1D1D1B"/>
</svg>
