<svg width="81" height="80" viewBox="0 0 81 80" fill="none" xmlns="http://www.w3.org/2000/svg">
<path d="M1.80048 20.5263C3.25571 10.3588 10.8588 2.75571 21.0263 1.30048C26.2164 0.557648 32.7076 0 40.5 0C48.2924 0 54.7836 0.557648 59.9737 1.30048C70.1412 2.75571 77.7443 10.3588 79.1995 20.5263C79.9423 25.7164 80.5 32.2076 80.5 40C80.5 47.7924 79.9423 54.2836 79.1995 59.4737C77.7443 69.6412 70.1412 77.2443 59.9737 78.6995C54.7836 79.4423 48.2924 80 40.5 80C32.7076 80 26.2164 79.4423 21.0263 78.6995C10.8588 77.2443 3.25571 69.6412 1.80048 59.4737C1.05765 54.2836 0.5 47.7924 0.5 40C0.5 32.2076 1.05765 25.7164 1.80048 20.5263Z" fill="#F3F4F5"/>
<path d="M23.3569 48.5712V52.5712C23.3569 55.0959 25.4036 57.1426 27.9284 57.1426H31.9284M23.3569 31.4284V27.4284C23.3569 24.9036 25.4036 22.8569 27.9284 22.8569H31.9284M57.6426 31.4284V27.4284C57.6426 24.9036 55.5959 22.8569 53.0712 22.8569H49.0712M57.6426 48.5712V52.5712C57.6426 55.0959 55.5959 57.1426 53.0712 57.1426H49.0712" stroke="#FF6700" stroke-width="1.8"/>
<path d="M28.8287 29.7144C28.8287 28.9491 29.4491 28.3287 30.2144 28.3287H37.0716C37.8369 28.3287 38.4573 28.9491 38.4573 29.7144V36.5716C38.4573 37.3369 37.8369 37.9573 37.0716 37.9573H30.2144C29.4491 37.9573 28.8287 37.3369 28.8287 36.5716V29.7144ZM28.8287 43.4287C28.8287 42.6634 29.4491 42.043 30.2144 42.043H37.0716C37.8369 42.043 38.4573 42.6634 38.4573 43.4287V50.2859C38.4573 51.0512 37.8369 51.6716 37.0716 51.6716H30.2144C29.4491 51.6716 28.8287 51.0512 28.8287 50.2859V43.4287ZM42.543 29.7144C42.543 28.9491 43.1634 28.3287 43.9287 28.3287H50.7859C51.5512 28.3287 52.1716 28.9491 52.1716 29.7144V36.5716C52.1716 37.3369 51.5512 37.9573 50.7859 37.9573H43.9287C43.1634 37.9573 42.543 37.3369 42.543 36.5716V29.7144ZM42.543 43.4287C42.543 42.6634 43.1634 42.043 43.9287 42.043H50.7859C51.5512 42.043 52.1716 42.6634 52.1716 43.4287V50.2859C52.1716 51.0512 51.5512 51.6716 50.7859 51.6716H43.9287C43.1634 51.6716 42.543 51.0512 42.543 50.2859V43.4287Z" stroke="#FF6700" stroke-width="1.8"/>
</svg>
