<svg width="81" height="80" viewBox="0 0 81 80" fill="none" xmlns="http://www.w3.org/2000/svg">
<path d="M1.80048 20.5263C3.25571 10.3588 10.8588 2.75571 21.0263 1.30048C26.2164 0.557648 32.7076 0 40.5 0C48.2924 0 54.7836 0.557648 59.9737 1.30048C70.1412 2.75571 77.7443 10.3588 79.1995 20.5263C79.9423 25.7164 80.5 32.2076 80.5 40C80.5 47.7924 79.9423 54.2836 79.1995 59.4737C77.7443 69.6412 70.1412 77.2443 59.9737 78.6995C54.7836 79.4423 48.2924 80 40.5 80C32.7076 80 26.2164 79.4423 21.0263 78.6995C10.8588 77.2443 3.25571 69.6412 1.80048 59.4737C1.05765 54.2836 0.5 47.7924 0.5 40C0.5 32.2076 1.05765 25.7164 1.80048 20.5263Z" fill="#F3F4F5"/>
<path d="M26.5 36C24.3 36 22.5 37.8 22.5 40C22.5 42.2 24.3 44 26.5 44C28.7 44 30.5 42.2 30.5 40C30.5 37.8 28.7 36 26.5 36ZM54.5 36C52.3 36 50.5 37.8 50.5 40C50.5 42.2 52.3 44 54.5 44C56.7 44 58.5 42.2 58.5 40C58.5 37.8 56.7 36 54.5 36ZM40.5 36C38.3 36 36.5 37.8 36.5 40C36.5 42.2 38.3 44 40.5 44C42.7 44 44.5 42.2 44.5 40C44.5 37.8 42.7 36 40.5 36Z" fill="#1D1D1B"/>
</svg>
