<svg width="27" height="26" viewBox="0 0 27 26" fill="none" xmlns="http://www.w3.org/2000/svg">
<path fill-rule="evenodd" clip-rule="evenodd" d="M13.4999 0.458496C6.57335 0.458496 0.958252 6.07359 0.958252 13.0002C0.958252 19.9267 6.57335 25.5418 13.4999 25.5418C20.4265 25.5418 26.0416 19.9267 26.0416 13.0002C26.0416 6.07359 20.4265 0.458496 13.4999 0.458496ZM2.70825 13.0002C2.70825 7.04009 7.53985 2.2085 13.4999 2.2085C19.46 2.2085 24.2916 7.04009 24.2916 13.0002C24.2916 18.9602 19.46 23.7918 13.4999 23.7918C7.53985 23.7918 2.70825 18.9602 2.70825 13.0002ZM8.34852 6.96331C9.34927 5.96257 11.0164 6.09703 11.8316 7.2682L12.8653 8.74701C13.4947 9.64578 13.4043 10.8838 12.6197 11.6723C12.9201 12.0723 13.2573 12.4792 13.6378 12.8596C14.0195 13.2406 14.4286 13.5778 14.8289 13.8787C15.6158 13.0993 16.8521 13.0021 17.7538 13.6352L19.2301 14.6671C20.4025 15.4821 20.5386 17.1504 19.5365 18.1513L19.0697 18.6181C17.7846 19.8977 16.0962 19.9149 14.5478 19.364C13.0154 18.8188 11.4646 17.6804 10.1404 16.3556C8.81649 15.0305 7.67907 13.4805 7.13477 11.9491C6.5847 10.4015 6.60305 8.71504 7.88152 7.43032L8.34852 6.96331ZM10.3952 8.26833C10.2092 8.00075 9.82366 7.9629 9.58568 8.20087L9.12098 8.66557C8.49022 9.29997 8.36416 10.1835 8.78343 11.3631C9.20861 12.5594 10.1549 13.8946 11.3778 15.1186C12.6005 16.3418 13.9366 17.2894 15.1341 17.7154C16.3154 18.1356 17.1999 18.0096 17.8339 17.3788L18.2988 16.9139C18.537 16.6761 18.4977 16.2893 18.2295 16.1032L16.749 15.0683C16.5357 14.9184 16.2416 14.9428 16.0605 15.1217L15.5348 15.6439C15.2451 15.9317 14.7949 15.9808 14.45 15.7624C13.7343 15.3091 13.0372 14.7331 12.4007 14.0978C11.7643 13.4614 11.1901 12.7648 10.7372 12.0496C10.5188 11.7047 10.5679 11.2545 10.8557 10.9648L11.3784 10.4387C11.5548 10.2614 11.5836 9.96798 11.4319 9.7515L10.3952 8.26833Z" fill="#FF6700"/>
</svg>
