<svg width="28" height="28" viewBox="0 0 28 28" fill="none" xmlns="http://www.w3.org/2000/svg">
<path fill-rule="evenodd" clip-rule="evenodd" d="M13.9999 4.375C11.906 4.375 10.2083 6.07275 10.2083 8.16667V10.7917H17.7916V8.16667C17.7916 6.07275 16.0938 4.375 13.9999 4.375ZM8.45825 8.16667V10.7917H8.16659C6.39417 10.7917 4.95825 12.2276 4.95825 14V22.1667C4.95825 23.9391 6.39417 25.375 8.16659 25.375H19.8333C21.6057 25.375 23.0416 23.9391 23.0416 22.1667V14C23.0416 12.2276 21.6057 10.7917 19.8333 10.7917H19.5416V8.16667C19.5416 5.10625 17.0603 2.625 13.9999 2.625C10.9395 2.625 8.45825 5.10625 8.45825 8.16667ZM8.16659 12.5417H9.33325H18.6666H19.8333C20.6392 12.5417 21.2916 13.1941 21.2916 14V22.1667C21.2916 22.9726 20.6392 23.625 19.8333 23.625H8.16659C7.36067 23.625 6.70825 22.9726 6.70825 22.1667V14C6.70825 13.1941 7.36067 12.5417 8.16659 12.5417ZM10.4999 17.2562C10.5901 17.2562 10.677 17.2698 10.7589 17.2951C10.8856 17.3339 11.0125 17.4038 11.1228 17.5141C11.31 17.7013 11.3807 17.9364 11.3807 18.137C11.3807 18.3376 11.31 18.5728 11.1228 18.76C10.9356 18.9472 10.7005 19.0179 10.4999 19.0179C10.2993 19.0179 10.0641 18.9472 9.87695 18.76C9.68974 18.5728 9.61906 18.3376 9.61906 18.137C9.61906 17.9364 9.68974 17.7013 9.87695 17.5141C9.98725 17.4038 10.1142 17.3339 10.2409 17.2951C10.3228 17.2698 10.4097 17.2562 10.4999 17.2562ZM14.2647 17.2951C14.1829 17.2698 14.0959 17.2562 14.0058 17.2562C13.9156 17.2562 13.8286 17.2698 13.7468 17.2951C13.6201 17.3339 13.4931 17.4038 13.3828 17.5141C13.1956 17.7013 13.1249 17.9364 13.1249 18.137C13.1249 18.4492 13.2833 18.6751 13.4258 18.7998C13.5517 18.9099 13.7506 19.0179 14.0058 19.0179C14.2063 19.0179 14.4415 18.9472 14.6287 18.76C14.8159 18.5728 14.8866 18.3376 14.8866 18.137C14.8866 17.9364 14.8159 17.7013 14.6287 17.5141C14.5184 17.4038 14.3914 17.3339 14.2647 17.2951ZM17.4999 17.2562C17.5901 17.2562 17.677 17.2698 17.7589 17.2951C17.8856 17.3339 18.0125 17.4038 18.1228 17.5141C18.31 17.7013 18.3807 17.9364 18.3807 18.137C18.3807 18.3376 18.31 18.5728 18.1228 18.76C17.9356 18.9472 17.7005 19.0179 17.4999 19.0179C17.2993 19.0179 17.0641 18.9472 16.8769 18.76C16.6897 18.5728 16.6191 18.3376 16.6191 18.137C16.6191 17.9364 16.6897 17.7013 16.8769 17.5141C16.9872 17.4038 17.1142 17.3339 17.2409 17.2951C17.3228 17.2698 17.4097 17.2562 17.4999 17.2562Z" fill="#FF6700"/>
</svg>
