<svg width="28" height="28" viewBox="0 0 28 28" fill="none" xmlns="http://www.w3.org/2000/svg">
<path fill-rule="evenodd" clip-rule="evenodd" d="M17.7961 3.28688C15.3423 2.40437 12.6577 2.40437 10.2039 3.28688C9.74914 3.45042 9.51308 3.95164 9.67663 4.40637C9.84017 4.8611 10.3414 5.09716 10.7961 4.93362C12.8671 4.18879 15.1329 4.18879 17.2039 4.93362C17.6586 5.09716 18.1598 4.8611 18.3234 4.40637C18.4869 3.95164 18.2508 3.45042 17.7961 3.28688ZM7.84871 5.45493C8.16243 5.82251 8.11877 6.3748 7.75119 6.68852C6.07649 8.11783 4.94381 10.0792 4.5429 12.2441C4.4549 12.7193 3.99837 13.0332 3.5232 12.9452C3.04803 12.8572 2.73416 12.4006 2.82216 11.9255C3.29613 9.36603 4.63523 7.0472 6.61512 5.35741C6.9827 5.04369 7.535 5.08736 7.84871 5.45493ZM3.52319 15.0548C3.99835 14.9668 4.4549 15.2807 4.5429 15.7559C4.94385 17.9208 6.07652 19.8822 7.75121 21.3116C8.11878 21.6253 8.16242 22.1776 7.8487 22.5452C7.53497 22.9127 6.98268 22.9564 6.61511 22.6426C4.63525 20.9528 3.29617 18.634 2.82216 16.0745C2.73416 15.5994 3.04802 15.1428 3.52319 15.0548ZM10.7961 23.0665C10.3414 22.903 9.84017 23.139 9.67663 23.5938C9.51308 24.0485 9.74914 24.5497 10.2039 24.7133C12.6577 25.5958 15.3423 25.5958 17.7961 24.7133C18.2508 24.5497 18.4869 24.0485 18.3234 23.5938C18.1598 23.139 17.6586 22.903 17.2039 23.0665C15.1329 23.8113 12.8671 23.8113 10.7961 23.0665ZM20.1511 5.45493C20.4648 5.08736 21.0171 5.04369 21.3847 5.35741C23.3646 7.0472 24.7037 9.36603 25.1777 11.9255C25.2657 12.4006 24.9518 12.8572 24.4766 12.9452C24.0015 13.0332 23.5449 12.7193 23.4569 12.2441C23.056 10.0792 21.9233 8.11783 20.2486 6.68852C19.8811 6.3748 19.8374 5.82251 20.1511 5.45493ZM25.1777 16.0745C25.2657 15.5994 24.9518 15.1428 24.4766 15.0548C24.0015 14.9668 23.5449 15.2807 23.4569 15.7559C23.056 17.9208 21.9233 19.8822 20.2486 21.3116C19.8811 21.6253 19.8374 22.1776 20.1511 22.5452C20.4649 22.9127 21.0171 22.9564 21.3847 22.6426C23.3646 20.9528 24.7037 18.634 25.1777 16.0745ZM13.8165 9.69445L10.4703 14.5885H13.3084C13.7916 14.5885 14.1834 14.9803 14.1834 15.4635V18.3052L17.5296 13.4111H14.6915C14.2083 13.4111 13.8165 13.0193 13.8165 12.5361V9.69445ZM12.9045 7.92775C13.2655 7.39988 13.9282 7.16875 14.5391 7.3577C15.15 7.54663 15.5666 8.1115 15.5665 8.75092V11.6611H18.0823C18.6233 11.6611 19.1198 11.9605 19.3722 12.439C19.6245 12.9174 19.5914 13.4961 19.2861 13.9426L15.0954 20.0719C14.7344 20.5997 14.0717 20.8309 13.4607 20.6419C12.8498 20.453 12.4333 19.8881 12.4334 19.2487V16.3385H9.91754C9.37662 16.3385 8.8801 16.0391 8.62771 15.5607C8.37534 15.0823 8.40847 14.5035 8.71377 14.057L12.9045 7.92775Z" fill="#FF6700"/>
</svg>
