<svg width="28" height="28" viewBox="0 0 28 28" fill="none" xmlns="http://www.w3.org/2000/svg">
<path fill-rule="evenodd" clip-rule="evenodd" d="M2.625 5.83333C2.625 4.06092 4.06092 2.625 5.83333 2.625H8.85267C9.33592 2.625 9.72767 3.01675 9.72767 3.5C9.72767 3.98325 9.33592 4.375 8.85267 4.375H5.83333C5.02742 4.375 4.375 5.02742 4.375 5.83333V8.85267C4.375 9.33592 3.98325 9.72767 3.5 9.72767C3.01675 9.72767 2.625 9.33592 2.625 8.85267V5.83333ZM9.625 10.5933C9.625 10.11 9.23325 9.71826 8.75 9.71826C8.26675 9.71826 7.875 10.11 7.875 10.5933V12.3433C7.875 12.8265 8.26675 13.2183 8.75 13.2183C9.23325 13.2183 9.625 12.8265 9.625 12.3433V10.5933ZM20.125 10.5933C20.125 10.11 19.7332 9.71826 19.25 9.71826C18.7668 9.71826 18.375 10.11 18.375 10.5933V12.3433C18.375 12.8265 18.7668 13.2183 19.25 13.2183C19.7332 13.2183 20.125 12.8265 20.125 12.3433V10.5933ZM14.5833 9.73812C15.0666 9.73812 15.4583 10.1299 15.4583 10.6131V14.6965C15.4583 15.8237 14.5439 16.7381 13.4167 16.7381H12.8333C12.3501 16.7381 11.9583 16.3464 11.9583 15.8631C11.9583 15.3799 12.3501 14.9881 12.8333 14.9881H13.4167C13.5774 14.9881 13.7083 14.8572 13.7083 14.6965V10.6131C13.7083 10.1299 14.1001 9.73812 14.5833 9.73812ZM10.8376 18.2311C10.4959 17.8893 9.9419 17.8893 9.60019 18.2311C9.25849 18.5728 9.25849 19.1268 9.60019 19.4685C12.0302 21.8985 15.9711 21.8985 18.4011 19.4685C18.7428 19.1268 18.7428 18.5728 18.4011 18.2311C18.0594 17.8893 17.5054 17.8893 17.1637 18.2311C15.4171 19.9777 12.5843 19.9777 10.8376 18.2311ZM25.375 19.1473C25.375 18.664 24.9832 18.2723 24.5 18.2723C24.0167 18.2723 23.625 18.664 23.625 19.1473V22.1666C23.625 22.9725 22.9725 23.625 22.1666 23.625H19.1473C18.664 23.625 18.2723 24.0167 18.2723 24.5C18.2723 24.9832 18.664 25.375 19.1473 25.375H22.1666C23.939 25.375 25.375 23.939 25.375 22.1666V19.1473ZM3.5 18.2723C3.98325 18.2723 4.375 18.664 4.375 19.1473V22.1666C4.375 22.9725 5.02742 23.625 5.83333 23.625H8.85267C9.33592 23.625 9.72767 24.0167 9.72767 24.5C9.72767 24.9832 9.33592 25.375 8.85267 25.375H5.83333C4.06092 25.375 2.625 23.939 2.625 22.1666V19.1473C2.625 18.664 3.01675 18.2723 3.5 18.2723ZM19.1473 2.625C18.664 2.625 18.2723 3.01675 18.2723 3.5C18.2723 3.98325 18.664 4.375 19.1473 4.375H22.1666C22.9725 4.375 23.625 5.02742 23.625 5.83333V8.85267C23.625 9.33592 24.0167 9.72767 24.5 9.72767C24.9832 9.72767 25.375 9.33592 25.375 8.85267V5.83333C25.375 4.06092 23.939 2.625 22.1666 2.625H19.1473Z" fill="#FF6700"/>
</svg>
