<svg width="28" height="28" viewBox="0 0 28 28" fill="none" xmlns="http://www.w3.org/2000/svg">
<path fill-rule="evenodd" clip-rule="evenodd" d="M8.47705 5.83333C8.47705 5.02742 9.12947 4.375 9.93538 4.375H18.0659C18.8718 4.375 19.5242 5.02742 19.5242 5.83333V6.125H8.47705V5.83333ZM6.72705 6.35087V5.83333C6.72705 4.06092 8.16297 2.625 9.93538 2.625H18.0659C19.8383 2.625 21.2742 4.06092 21.2742 5.83333V6.35192C22.4583 6.82385 23.2947 7.98059 23.2947 9.33333V9.84958C24.4819 10.32 25.3211 11.4783 25.3211 12.8333V22.1667C25.3211 23.9394 23.8838 25.375 22.1128 25.375H5.8868C4.11438 25.375 2.67847 23.9391 2.67847 22.1667V12.8333C2.67847 11.4787 3.51722 10.3207 4.7039 9.84996V9.33333C4.7039 7.97958 5.54157 6.82214 6.72705 6.35087ZM7.91223 7.875C7.10631 7.875 6.4539 8.52742 6.4539 9.33333V9.625H21.5447V9.33333C21.5447 8.52742 20.8923 7.875 20.0864 7.875H7.91223ZM5.8868 11.375C5.08088 11.375 4.42847 12.0274 4.42847 12.8333V22.1667C4.42847 22.9726 5.08088 23.625 5.8868 23.625H22.1128C22.9178 23.625 23.5711 22.9723 23.5711 22.1667V12.8333C23.5711 12.0274 22.9187 11.375 22.1128 11.375H5.8868Z" fill="#FF6700"/>
</svg>
