<svg width="28" height="28" viewBox="0 0 28 28" fill="none" xmlns="http://www.w3.org/2000/svg">
<path fill-rule="evenodd" clip-rule="evenodd" d="M9.625 4.6665C9.625 4.18325 9.23325 3.7915 8.75 3.7915C8.26675 3.7915 7.875 4.18325 7.875 4.6665V7.2915H4.08446C3.60121 7.2915 3.20946 7.68325 3.20946 8.1665C3.20946 8.64975 3.60121 9.0415 4.08446 9.0415H12.4151C12.0249 11.0199 10.9279 12.8408 9.42314 14.2052C8.8813 13.4328 8.52952 12.5344 8.45558 11.5977C8.41756 11.1159 7.99619 10.7562 7.51444 10.7943C7.03269 10.8323 6.67298 11.2537 6.71101 11.7354C6.81204 13.0153 7.29014 14.2304 8.02826 15.2636C6.81585 16.0247 5.44264 16.5145 4.01428 16.6276C3.53254 16.6657 3.17291 17.0871 3.21102 17.5689C3.24914 18.0506 3.67057 18.4102 4.15231 18.3721C5.97395 18.228 7.71135 17.5811 9.21815 16.578C10.3657 17.5851 11.8099 18.2508 13.3478 18.3722C13.8295 18.4102 14.2509 18.0505 14.2889 17.5687C14.3269 17.087 13.9672 16.6656 13.4855 16.6276C12.4459 16.5455 11.4535 16.1213 10.6282 15.4748C12.6743 13.6069 14.0691 11.0196 14.2901 8.23573C14.3094 7.9924 14.2262 7.75206 14.0605 7.57277C13.8949 7.39347 13.6619 7.2915 13.4178 7.2915H9.625V4.6665ZM19.2499 11.9585C19.5957 11.9585 19.909 12.1621 20.0495 12.4781L24.7161 22.9781C24.9124 23.4197 24.7135 23.9368 24.2719 24.1331C23.8303 24.3293 23.3132 24.1305 23.117 23.6889L22.3108 21.875H16.189L15.3828 23.6889C15.1865 24.1305 14.6695 24.3293 14.2279 24.1331C13.7863 23.9368 13.5874 23.4197 13.7836 22.9781L18.4503 12.4781C18.5907 12.1621 18.9041 11.9585 19.2499 11.9585ZM19.2499 14.9879L21.533 20.125H16.9668L19.2499 14.9879Z" fill="#FF6700"/>
</svg>
