<svg width="28" height="28" viewBox="0 0 28 28" fill="none" xmlns="http://www.w3.org/2000/svg">
<path fill-rule="evenodd" clip-rule="evenodd" d="M20.3934 3.2085C17.9901 3.2085 16.0417 5.1568 16.0417 7.56016C16.0417 9.96352 17.9901 11.9118 20.3934 11.9118C22.7968 11.9118 24.7451 9.96352 24.7451 7.56016C24.7451 5.1568 22.7968 3.2085 20.3934 3.2085ZM14.2917 7.56016C14.2917 4.19031 17.0236 1.4585 20.3934 1.4585C23.7633 1.4585 26.4951 4.19031 26.4951 7.56016C26.4951 10.93 23.7633 13.6618 20.3934 13.6618C17.0236 13.6618 14.2917 10.93 14.2917 7.56016ZM21.3991 5.54153C21.3991 5.18753 21.1858 4.86841 20.8587 4.73304C20.5316 4.59766 20.1552 4.67271 19.905 4.92318L18.9227 5.90668C18.5812 6.24859 18.5815 6.80261 18.9234 7.14412C19.1216 7.34207 19.3911 7.42517 19.6491 7.39346V8.60002H19.5455C19.0622 8.60002 18.6705 8.99177 18.6705 9.47502C18.6705 9.95827 19.0622 10.35 19.5455 10.35H21.5043C21.9875 10.35 22.3793 9.95827 22.3793 9.47502C22.3793 8.99177 21.9875 8.60002 21.5043 8.60002H21.3991V5.54153ZM4.375 10.5002C4.375 8.40625 6.07275 6.7085 8.16667 6.7085H11.6667C12.1499 6.7085 12.5417 6.31675 12.5417 5.8335C12.5417 5.35025 12.1499 4.9585 11.6667 4.9585H8.16667C5.10625 4.9585 2.625 7.43975 2.625 10.5002V19.8335C2.625 22.8939 5.10625 25.3752 8.16667 25.3752H17.5C20.5604 25.3752 23.0417 22.8939 23.0417 19.8335V16.3335C23.0417 15.8502 22.6499 15.4585 22.1667 15.4585C21.6834 15.4585 21.2917 15.8502 21.2917 16.3335V19.8335C21.2917 21.9274 19.5939 23.6252 17.5 23.6252H8.16667C6.07275 23.6252 4.375 21.9274 4.375 19.8335V10.5002Z" fill="#FF6700"/>
</svg>
