<svg width="28" height="28" viewBox="0 0 28 28" fill="none" xmlns="http://www.w3.org/2000/svg">
<path fill-rule="evenodd" clip-rule="evenodd" d="M21.238 6.72223C19.3177 4.80073 16.7638 3.7414 14.0432 3.74023C8.435 3.74023 3.87217 8.30073 3.871 13.9066C3.86867 15.6904 4.3365 17.4439 5.22783 18.9897L3.78467 24.2584L9.177 22.8444C10.6692 23.6564 12.3398 24.0822 14.0385 24.0822H14.0432C19.649 24.0822 24.2118 19.5206 24.2142 13.9147C24.2153 11.1987 23.1583 8.6449 21.238 6.72223Z" stroke="#FF6700" stroke-width="1.5" stroke-linecap="round" stroke-linejoin="round"/>
<path d="M15.2776 15.8199L15.7513 15.3497C16.1864 14.9181 16.8748 14.8632 17.3764 15.2156C17.8618 15.5562 18.3004 15.8619 18.7088 16.1466C19.3574 16.5969 19.4356 17.5209 18.8768 18.0786L18.4579 18.4974" stroke="#FF6700" stroke-width="1.5" stroke-linecap="round" stroke-linejoin="round"/>
<path d="M9.50269 9.54196L9.92152 9.12313C10.4792 8.56546 11.4032 8.64363 11.8535 9.29113C12.137 9.69946 12.4427 10.1381 12.7845 10.6235C13.1369 11.1251 13.0832 11.8135 12.6504 12.2486L12.1802 12.7223" stroke="#FF6700" stroke-width="1.5" stroke-linecap="round" stroke-linejoin="round"/>
<path d="M18.4579 18.4971C16.73 20.2167 13.8262 18.7561 11.5337 16.4624" stroke="#FF6700" stroke-width="1.5" stroke-linecap="round" stroke-linejoin="round"/>
<path d="M11.5361 16.4662C9.24358 14.1725 7.78291 11.2698 9.50258 9.54199" stroke="#FF6700" stroke-width="1.5" stroke-linecap="round" stroke-linejoin="round"/>
<path d="M12.1802 12.7222C12.5523 13.309 13.0295 13.89 13.5685 14.429L13.5708 14.4313C14.1098 14.9703 14.6908 15.4475 15.2777 15.8197" stroke="#FF6700" stroke-width="1.5" stroke-linecap="round" stroke-linejoin="round"/>
</svg>
